<svg width="512" height="512" viewBox="0 0 512 512" fill="none" xmlns="http://www.w3.org/2000/svg">
  <rect width="512" height="512" rx="128" fill="#0ea5e9"/>
  <path d="M256 128C212.582 128 176 164.582 176 208V224H160C145.272 224 133.333 235.939 133.333 250.667V368C133.333 382.728 145.272 394.667 160 394.667H352C366.728 394.667 378.667 382.728 378.667 368V250.667C378.667 235.939 366.728 224 352 224H336V208C336 164.582 299.418 128 256 128ZM288 224V208C288 180.386 265.614 158 238 158H256C283.614 158 306 180.386 306 208V224H288ZM256 288C264.837 288 272 295.163 272 304C272 309.891 268.328 314.909 263.042 317.385L268 352H244L248.958 317.385C243.672 314.909 240 309.891 240 304C240 295.163 247.163 288 256 288Z" fill="white"/>
</svg>
