<svg width="192" height="192" viewBox="0 0 192 192" fill="none" xmlns="http://www.w3.org/2000/svg">
  <rect width="192" height="192" rx="48" fill="#0ea5e9"/>
  <path d="M96 48C79.4315 48 66 61.4315 66 78V84H60C54.4772 84 50 88.4772 50 94V138C50 143.523 54.4772 148 60 148H132C137.523 148 142 143.523 142 138V94C142 88.4772 137.523 84 132 84H126V78C126 61.4315 112.569 48 96 48ZM108 84V78C108 67.5066 99.4934 59 89 59H96C106.493 59 115 67.5066 115 78V84H108ZM96 108C99.3137 108 102 110.686 102 114C102 116.209 100.873 118.141 99.1406 119.219L101.375 132H90.625L92.8594 119.219C91.1271 118.141 90 116.209 90 114C90 110.686 92.6863 108 96 108Z" fill="white"/>
</svg>
